<svg xmlns="http://www.w3.org/2000/svg" width="1920" height="684.125" viewBox="0 0 1920 684.125">
  <defs>
    <style>
      .cls-1 {
        fill: #112037;
        fill-rule: evenodd;
      }
    </style>
  </defs>
  <path id="BG" class="cls-1" d="M0,768H340s16.863-.132,30-8c11.386-6.868,16.306-7.785,35-8s264,0,264,0,14.751-.358,24-6c9.5-5.392,11.751-7.859,34-8s479,0,479,0,29.95-2.5,49,9c16.55,10,29.53,16.9,55,16,30.72-.653,430,0,430,0s24.13-1.767,36,5c7.87,4.517,11.9,7.738,26,8s120,0,120,0V632H0V768ZM0,100.117H340s16.863,0.132,30,7.993c11.386,6.862,16.306,7.778,35,7.992s264,0,264,0,14.751,0.359,24,5.995c9.5,5.387,11.751,7.852,34,7.993s479,0,479,0,29.95,2.5,49-8.991c16.55-9.992,29.53-16.888,55-15.987,30.72,0.652,430,0,430,0s24.13,1.765,36-4.995c7.87-4.513,11.9-7.732,26-7.993s120,0,120,0V236H0V100.117ZM0,187H1921V648H0V187Z" transform="translate(0 -92)"/>
</svg>
